Normalized EMG Linear Envelopes
nRows=54
nColumns=17

endheader
time	        VM	        VL	        RF	       GRA	        TA	   ADDLONG	   SEMIMEM	      BFLH	        GM	        GL	       TFL	   GLUTMAX	   GLUTMED	      PIRI	    OBTINT	        QF	
2.384	  0.485150	  0.503734	  0.088210	  0.193196	  0.189268	  0.079607	  0.157464	  0.284322	  0.792908	  0.498081	  0.076200	  0.169329	  0.335217	  0.471826	  2.210552	  0.778067	
2.3845	  0.481209	  0.498990	  0.087825	  0.192626	  0.187967	  0.080765	  0.156861	  0.281260	  0.790319	  0.498450	  0.076191	  0.166152	  0.332646	  0.469035	  2.211058	  0.772544	
2.385	  0.477203	  0.494214	  0.087430	  0.192079	  0.186666	  0.081960	  0.156254	  0.278221	  0.787682	  0.498787	  0.076185	  0.162999	  0.330103	  0.466245	  2.211085	  0.767050	
2.3855	  0.473135	  0.489406	  0.087026	  0.191555	  0.185363	  0.083193	  0.155643	  0.275203	  0.785001	  0.499093	  0.076181	  0.159870	  0.327590	  0.463459	  2.210629	  0.761587	
2.386	  0.469007	  0.484567	  0.086613	  0.191055	  0.184060	  0.084465	  0.155029	  0.272205	  0.782276	  0.499367	  0.076179	  0.156767	  0.325110	  0.460679	  2.209688	  0.756156	
2.3865	  0.464821	  0.479698	  0.086190	  0.190578	  0.182757	  0.085776	  0.154409	  0.269228	  0.779508	  0.499610	  0.076180	  0.153689	  0.322666	  0.457908	  2.208262	  0.750757	
2.387	  0.460578	  0.474801	  0.085758	  0.190125	  0.181456	  0.087127	  0.153786	  0.266269	  0.776700	  0.499821	  0.076184	  0.150636	  0.320260	  0.455147	  2.206349	  0.745393	
2.3875	  0.456282	  0.469877	  0.085319	  0.189697	  0.180156	  0.088517	  0.153157	  0.263330	  0.773852	  0.500000	  0.076190	  0.147611	  0.317895	  0.452398	  2.203949	  0.740062	
2.388	  0.451933	  0.464927	  0.084870	  0.189295	  0.178858	  0.089949	  0.152523	  0.260407	  0.770965	  0.500146	  0.076199	  0.144612	  0.315573	  0.449664	  2.201062	  0.734766	
2.3885	  0.447535	  0.459953	  0.084414	  0.188918	  0.177563	  0.091421	  0.151884	  0.257501	  0.768040	  0.500259	  0.076211	  0.141640	  0.313297	  0.446946	  2.197689	  0.729506	
2.389	  0.443088	  0.454957	  0.083950	  0.188568	  0.176271	  0.092935	  0.151239	  0.254610	  0.765076	  0.500338	  0.076226	  0.138696	  0.311068	  0.444246	  2.193830	  0.724281	
2.3895	  0.438596	  0.449941	  0.083479	  0.188245	  0.174983	  0.094491	  0.150589	  0.251734	  0.762075	  0.500383	  0.076244	  0.135780	  0.308889	  0.441565	  2.189488	  0.719092	
2.39	  0.434059	  0.444906	  0.083000	  0.187950	  0.173698	  0.096090	  0.149932	  0.248871	  0.759036	  0.500392	  0.076265	  0.132893	  0.306762	  0.438904	  2.184669	  0.713938	
2.3905	  0.429482	  0.439855	  0.082514	  0.187683	  0.172418	  0.097731	  0.149268	  0.246020	  0.755959	  0.500364	  0.076289	  0.130035	  0.304689	  0.436266	  2.179377	  0.708820	
2.391	  0.424865	  0.434789	  0.082022	  0.187446	  0.171142	  0.099416	  0.148598	  0.243181	  0.752844	  0.500299	  0.076317	  0.127207	  0.302672	  0.433651	  2.173618	  0.703738	
2.3915	  0.420212	  0.429710	  0.081523	  0.187238	  0.169871	  0.101145	  0.147921	  0.240352	  0.749690	  0.500196	  0.076349	  0.124408	  0.300714	  0.431062	  2.167401	  0.698690	
2.392	  0.415526	  0.424619	  0.081019	  0.187062	  0.168605	  0.102917	  0.147238	  0.237533	  0.746497	  0.500053	  0.076384	  0.121640	  0.298815	  0.428498	  2.160733	  0.693678	
2.3925	  0.410808	  0.419518	  0.080509	  0.186917	  0.167344	  0.104734	  0.146548	  0.234723	  0.743264	  0.499870	  0.076423	  0.118901	  0.296979	  0.425961	  2.153623	  0.688699	
2.393	  0.406062	  0.414408	  0.079994	  0.186805	  0.166089	  0.106596	  0.145852	  0.231922	  0.739990	  0.499646	  0.076466	  0.116194	  0.295207	  0.423453	  2.146079	  0.683753	
2.3935	  0.401289	  0.409291	  0.079475	  0.186726	  0.164839	  0.108502	  0.145151	  0.229130	  0.736675	  0.499381	  0.076513	  0.113517	  0.293500	  0.420974	  2.138109	  0.678840	
2.394	  0.396494	  0.404169	  0.078951	  0.186682	  0.163595	  0.110454	  0.144445	  0.226345	  0.733319	  0.499075	  0.076564	  0.110871	  0.291862	  0.418526	  2.129722	  0.673958	
2.3945	  0.391676	  0.399042	  0.078424	  0.186672	  0.162357	  0.112450	  0.143735	  0.223567	  0.729919	  0.498728	  0.076619	  0.108257	  0.290292	  0.416109	  2.120927	  0.669107	
2.395	  0.386840	  0.393912	  0.077893	  0.186698	  0.161125	  0.114492	  0.143020	  0.220797	  0.726477	  0.498339	  0.076678	  0.105674	  0.288795	  0.413724	  2.111732	  0.664284	
2.3955	  0.381987	  0.388780	  0.077359	  0.186761	  0.159900	  0.116580	  0.142301	  0.218034	  0.722991	  0.497908	  0.076742	  0.103124	  0.287370	  0.411372	  2.102145	  0.659489	
2.396	  0.377119	  0.383648	  0.076822	  0.186861	  0.158681	  0.118713	  0.141579	  0.215277	  0.719461	  0.497435	  0.076809	  0.100605	  0.286021	  0.409055	  2.092174	  0.654721	
2.3965	  0.372239	  0.378517	  0.076283	  0.186999	  0.157469	  0.120892	  0.140854	  0.212527	  0.715888	  0.496919	  0.076881	  0.098118	  0.284748	  0.406772	  2.081826	  0.649977	
2.397	  0.367348	  0.373388	  0.075742	  0.187176	  0.156264	  0.123117	  0.140127	  0.209783	  0.712270	  0.496361	  0.076957	  0.095664	  0.283553	  0.404525	  2.071108	  0.645258	
2.3975	  0.362448	  0.368263	  0.075198	  0.187392	  0.155067	  0.125387	  0.139398	  0.207047	  0.708610	  0.495761	  0.077037	  0.093243	  0.282439	  0.402314	  2.060028	  0.640560	
2.398	  0.357542	  0.363141	  0.074653	  0.187648	  0.153877	  0.127704	  0.138668	  0.204319	  0.704909	  0.495119	  0.077121	  0.090855	  0.281407	  0.400140	  2.048593	  0.635883	
2.3985	  0.352632	  0.358025	  0.074106	  0.187944	  0.152694	  0.130066	  0.137938	  0.201599	  0.701167	  0.494434	  0.077209	  0.088499	  0.280458	  0.398003	  2.036810	  0.631225	
2.399	  0.347718	  0.352914	  0.073558	  0.188281	  0.151520	  0.132474	  0.137207	  0.198890	  0.697388	  0.493708	  0.077300	  0.086177	  0.279595	  0.395904	  2.024686	  0.626584	
2.3995	  0.342803	  0.347811	  0.073010	  0.188659	  0.150353	  0.134927	  0.136478	  0.196192	  0.693572	  0.492939	  0.077396	  0.083888	  0.278820	  0.393842	  2.012230	  0.621958	
2.4	  0.337889	  0.342714	  0.072460	  0.189079	  0.149193	  0.137426	  0.135750	  0.193505	  0.689722	  0.492129	  0.077495	  0.081633	  0.278134	  0.391819	  1.999449	  0.617345	
2.4005	  0.332977	  0.337627	  0.071910	  0.189540	  0.148042	  0.139970	  0.135025	  0.190832	  0.685839	  0.491277	  0.077597	  0.079412	  0.277538	  0.389833	  1.986353	  0.612743	
2.401	  0.328068	  0.332548	  0.071360	  0.190044	  0.146898	  0.142559	  0.134304	  0.188173	  0.681926	  0.490384	  0.077703	  0.077224	  0.277035	  0.387886	  1.972951	  0.608152	
2.4015	  0.323164	  0.327481	  0.070811	  0.190590	  0.145762	  0.145194	  0.133587	  0.185529	  0.677984	  0.489450	  0.077811	  0.075071	  0.276626	  0.385977	  1.959252	  0.603568	
2.402	  0.318267	  0.322425	  0.070262	  0.191179	  0.144635	  0.147873	  0.132875	  0.182901	  0.674017	  0.488477	  0.077923	  0.072951	  0.276312	  0.384105	  1.945267	  0.598990	
2.4025	  0.313378	  0.317381	  0.069713	  0.191811	  0.143515	  0.150596	  0.132169	  0.180291	  0.670025	  0.487464	  0.078037	  0.070865	  0.276095	  0.382271	  1.931004	  0.594417	
2.403	  0.308498	  0.312352	  0.069166	  0.192485	  0.142403	  0.153364	  0.131471	  0.177699	  0.666012	  0.486411	  0.078154	  0.068814	  0.275975	  0.380473	  1.916471	  0.589846	
2.4035	  0.303629	  0.307337	  0.068620	  0.193203	  0.141300	  0.156175	  0.130780	  0.175126	  0.661978	  0.485321	  0.078272	  0.066796	  0.275955	  0.378713	  1.901678	  0.585277	
2.404	  0.298773	  0.302338	  0.068076	  0.193965	  0.140204	  0.159030	  0.130098	  0.172574	  0.657926	  0.484191	  0.078393	  0.064813	  0.276035	  0.376989	  1.886632	  0.580706	
2.4045	  0.293929	  0.297357	  0.067534	  0.194769	  0.139118	  0.161927	  0.129426	  0.170043	  0.653856	  0.483024	  0.078515	  0.062863	  0.276216	  0.375301	  1.871341	  0.576133	
2.405	  0.289101	  0.292393	  0.066994	  0.195617	  0.138039	  0.164867	  0.128765	  0.167535	  0.649772	  0.481818	  0.078639	  0.060948	  0.276499	  0.373649	  1.855811	  0.571556	
2.4055	  0.284290	  0.287448	  0.066456	  0.196508	  0.136969	  0.167849	  0.128115	  0.165050	  0.645675	  0.480574	  0.078763	  0.059067	  0.276886	  0.372032	  1.840049	  0.566974	
2.406	  0.279497	  0.282522	  0.065922	  0.197442	  0.135907	  0.170872	  0.127476	  0.162589	  0.641565	  0.479291	  0.078889	  0.057219	  0.277376	  0.370449	  1.824063	  0.562387	
2.4065	  0.274724	  0.277618	  0.065390	  0.198418	  0.134853	  0.173937	  0.126851	  0.160154	  0.637444	  0.477970	  0.079015	  0.055405	  0.277971	  0.368900	  1.807859	  0.557795	
2.407	  0.269972	  0.272735	  0.064861	  0.199437	  0.133807	  0.177041	  0.126239	  0.157744	  0.633313	  0.476609	  0.079141	  0.053625	  0.278672	  0.367385	  1.791442	  0.553197	
2.4075	  0.265244	  0.267874	  0.064335	  0.200499	  0.132769	  0.180186	  0.125641	  0.155361	  0.629173	  0.475210	  0.079268	  0.051878	  0.279478	  0.365903	  1.774820	  0.548595	
2.408	  0.260540	  0.263038	  0.063814	  0.201603	  0.131739	  0.183369	  0.125058	  0.153006	  0.625024	  0.473771	  0.079394	  0.050165	  0.280392	  0.364453	  1.758000	  0.543989	
2.4085	  0.255861	  0.258226	  0.063296	  0.202748	  0.130716	  0.186591	  0.124491	  0.150679	  0.620868	  0.472293	  0.079519	  0.048485	  0.281412	  0.363034	  1.740988	  0.539378	
2.409	  0.251210	  0.253440	  0.062782	  0.203934	  0.129701	  0.189850	  0.123941	  0.148382	  0.616704	  0.470776	  0.079644	  0.046838	  0.282540	  0.361645	  1.723794	  0.534765	
2.4095	  0.246588	  0.248682	  0.062273	  0.205161	  0.128693	  0.193145	  0.123408	  0.146114	  0.612532	  0.469219	  0.079769	  0.045224	  0.283776	  0.360287	  1.706426	  0.530148	
2.41	  0.241995	  0.243953	  0.061769	  0.206429	  0.127692	  0.196477	  0.122892	  0.143877	  0.608354	  0.467621	  0.079892	  0.043642	  0.285121	  0.358958	  1.688896	  0.525528	
2.4105	  0.237434	  0.239253	  0.061269	  0.207736	  0.126699	  0.199843	  0.122395	  0.141671	  0.604169	  0.465984	  0.080014	  0.042093	  0.286574	  0.357658	  1.671213	  0.520906	
